<svg viewBox="0 0 500 500" version="1.1" xmlns="http://www.w3.org/2000/svg" desc="Created with imagetracer.js version 1.2.6" ><path fill="rgb(253,46,60)" stroke="rgb(253,46,60)" stroke-width="0" opacity="0.9921568627450981" d="M 0 0 L 500 0 L 500 1 L 500 8 L 499 8 L 498 4 Q 495 5 496 2 L 494 2 L 492 2 Q 491 4 494 3 L 498 9 L 497 9 L 494 4 L 491 3 L 491 1 L 9 1 L 8 4 L 3 8 Q 4 10 0 9 L 0 0 Z M 8 1 L 7 2 L 4 2 Q 5 5 2 4 L 1 7 L 2 8 L 8 3 L 8 1 Z " /><path fill="rgb(253,46,60)" stroke="rgb(253,46,60)" stroke-width="0" opacity="0.9921568627450981" d="M 0 493 Q 4 492 3 495 L 8 498 L 8 500 L 5 500 L 6 499 L 2 494 L 1 496 L 2 498 Q 5 497 4 500 L 0 500 L 0 493 Z " /><path fill="rgb(253,46,60)" stroke="rgb(253,46,60)" stroke-width="0" opacity="0.9921568627450981" d="M 498 493 L 498 495 Q 493 497 495 500 L 492 500 Q 491 497 494 498 L 498 493 Z " /><path fill="rgb(253,46,60)" stroke="rgb(253,46,60)" stroke-width="0" opacity="0.9921568627450981" d="M 500 494 L 500 500 Q 495 502 496 498 Q 499 499 498 497 L 500 494 Z " /><path fill="rgb(254,66,77)" stroke="rgb(254,66,77)" stroke-width="0" opacity="0.996078431372549" d="M 25 107 L 66 108 L 25 108 L 25 107 Z " /><path fill="rgb(254,66,77)" stroke="rgb(254,66,77)" stroke-width="0" opacity="0.996078431372549" d="M 131 108 L 134 109 L 131 109 L 131 108 Z " /><path fill="rgb(254,66,77)" stroke="rgb(254,66,77)" stroke-width="0" opacity="0.996078431372549" d="M 142 109 L 144 110 L 142 110 L 142 109 Z " /><path fill="rgb(254,66,77)" stroke="rgb(254,66,77)" stroke-width="0" opacity="0.996078431372549" d="M 324 113 L 324 115 L 254 115 L 323 114 L 324 113 Z " /><path fill="rgb(254,66,77)" stroke="rgb(254,66,77)" stroke-width="0" opacity="0.996078431372549" d="M 167 114 L 167 116 L 165 116 L 167 114 Z " /><path fill="rgb(254,66,77)" stroke="rgb(254,66,77)" stroke-width="0" opacity="0.996078431372549" d="M 407 114 L 476 115 L 407 115 L 407 114 Z " /><path fill="rgb(254,66,77)" stroke="rgb(254,66,77)" stroke-width="0" opacity="0.996078431372549" d="M 178 121 L 179 123 L 178 121 Z " /><path fill="rgb(254,66,77)" stroke="rgb(254,66,77)" stroke-width="0" opacity="0.996078431372549" d="M 181 123 L 182 125 L 181 123 Z " /><path fill="rgb(254,66,77)" stroke="rgb(254,66,77)" stroke-width="0" opacity="0.996078431372549" d="M 185 126 L 198 140 L 185 126 Z " /><path fill="rgb(254,66,77)" stroke="rgb(254,66,77)" stroke-width="0" opacity="0.996078431372549" d="M 327 130 L 329 131 L 327 132 L 327 130 Z " /><path fill="rgb(254,66,77)" stroke="rgb(254,66,77)" stroke-width="0" opacity="0.996078431372549" d="M 329 139 L 331 140 L 329 141 L 329 139 Z " /><path fill="rgb(254,66,77)" stroke="rgb(254,66,77)" stroke-width="0" opacity="0.996078431372549" d="M 199 141 L 201 144 L 199 141 Z " /><path fill="rgb(254,66,77)" stroke="rgb(254,66,77)" stroke-width="0" opacity="0.996078431372549" d="M 202 145 L 203 147 L 202 145 Z " /><path fill="rgb(254,66,77)" stroke="rgb(254,66,77)" stroke-width="0" opacity="0.996078431372549" d="M 114 157 L 119 158 L 114 158 L 114 157 Z " /><path fill="rgb(254,66,77)" stroke="rgb(254,66,77)" stroke-width="0" opacity="0.996078431372549" d="M 128 158 L 130 159 L 128 159 L 128 158 Z " /><path fill="rgb(254,66,77)" stroke="rgb(254,66,77)" stroke-width="0" opacity="0.996078431372549" d="M 210 158 L 211 160 L 210 158 Z " /><path fill="rgb(254,66,77)" stroke="rgb(254,66,77)" stroke-width="0" opacity="0.996078431372549" d="M 133 159 L 135 160 L 133 161 L 133 159 Z " /><path fill="rgb(254,66,77)" stroke="rgb(254,66,77)" stroke-width="0" opacity="0.996078431372549" d="M 154 168 L 161 176 L 154 168 Z " /><path fill="rgb(254,66,77)" stroke="rgb(254,66,77)" stroke-width="0" opacity="0.996078431372549" d="M 162 177 L 163 179 L 162 177 Z " /><path fill="rgb(254,66,77)" stroke="rgb(254,66,77)" stroke-width="0" opacity="0.996078431372549" d="M 298 177 L 299 182 L 298 183 L 298 388 L 298 177 Z " /><path fill="rgb(254,66,77)" stroke="rgb(254,66,77)" stroke-width="0" opacity="0.996078431372549" d="M 433 177 L 433 388 L 432 388 L 432 183 L 431 182 L 433 177 Z " /><path fill="rgb(254,66,77)" stroke="rgb(254,66,77)" stroke-width="0" opacity="0.996078431372549" d="M 218 178 L 220 179 L 218 180 L 218 178 Z " /><path fill="rgb(254,66,77)" stroke="rgb(254,66,77)" stroke-width="0" opacity="0.996078431372549" d="M 164 180 L 165 182 L 164 180 Z " /><path fill="rgb(254,66,77)" stroke="rgb(254,66,77)" stroke-width="0" opacity="0.996078431372549" d="M 219 181 L 221 182 L 219 183 L 219 181 Z " /><path fill="rgb(254,66,77)" stroke="rgb(254,66,77)" stroke-width="0" opacity="0.996078431372549" d="M 430 190 L 431 192 Q 428 193 430 190 Z " /><path fill="rgb(254,66,77)" stroke="rgb(254,66,77)" stroke-width="0" opacity="0.996078431372549" d="M 342 197 L 344 198 L 342 199 L 342 197 Z " /><path fill="rgb(254,66,77)" stroke="rgb(254,66,77)" stroke-width="0" opacity="0.996078431372549" d="M 173 201 L 173 203 L 171 203 L 173 201 Z " /><path fill="rgb(254,66,77)" stroke="rgb(254,66,77)" stroke-width="0" opacity="0.996078431372549" d="M 344 206 L 346 207 L 344 208 L 344 206 Z " /><path fill="rgb(254,66,77)" stroke="rgb(254,66,77)" stroke-width="0" opacity="0.996078431372549" d="M 385 206 Q 387 205 386 208 L 385 206 Z " /><path fill="rgb(254,66,77)" stroke="rgb(254,66,77)" stroke-width="0" opacity="0.996078431372549" d="M 227 213 L 227 216 L 226 216 L 227 213 Z " /><path fill="rgb(254,66,77)" stroke="rgb(254,66,77)" stroke-width="0" opacity="0.996078431372549" d="M 383 215 Q 385 214 384 217 L 383 215 Z " /><path fill="rgb(254,66,77)" stroke="rgb(254,66,77)" stroke-width="0" opacity="0.996078431372549" d="M 176 217 L 176 220 L 175 220 L 176 217 Z " /><path fill="rgb(254,66,77)" stroke="rgb(254,66,77)" stroke-width="0" opacity="0.996078431372549" d="M 228 222 L 228 226 L 227 226 L 228 222 Z " /><path fill="rgb(254,66,77)" stroke="rgb(254,66,77)" stroke-width="0" opacity="0.996078431372549" d="M 423 223 L 424 225 Q 421 226 423 223 Z " /><path fill="rgb(254,66,77)" stroke="rgb(254,66,77)" stroke-width="0" opacity="0.996078431372549" d="M 381 224 Q 383 223 382 226 L 381 224 Z " /><path fill="rgb(254,66,77)" stroke="rgb(254,66,77)" stroke-width="0" opacity="0.996078431372549" d="M 177 227 L 177 232 L 176 232 L 177 227 Z " /><path fill="rgb(254,66,77)" stroke="rgb(254,66,77)" stroke-width="0" opacity="0.996078431372549" d="M 229 237 L 229 245 L 228 245 L 229 237 Z " /><path fill="rgb(254,66,77)" stroke="rgb(254,66,77)" stroke-width="0" opacity="0.996078431372549" d="M 313 247 L 313 249 L 311 249 L 313 247 Z " /><path fill="rgb(254,66,77)" stroke="rgb(254,66,77)" stroke-width="0" opacity="0.996078431372549" d="M 74 248 L 74 333 L 73 333 L 74 248 Z " /><path fill="rgb(254,66,77)" stroke="rgb(254,66,77)" stroke-width="0" opacity="0.996078431372549" d="M 24 260 L 24 345 L 23 345 L 24 260 Z " /><path fill="rgb(254,66,77)" stroke="rgb(254,66,77)" stroke-width="0" opacity="0.996078431372549" d="M 229 262 L 229 269 L 228 269 L 229 262 Z " /><path fill="rgb(254,66,77)" stroke="rgb(254,66,77)" stroke-width="0" opacity="0.996078431372549" d="M 357 264 L 359 265 L 357 266 L 357 264 Z " /><path fill="rgb(254,66,77)" stroke="rgb(254,66,77)" stroke-width="0" opacity="0.996078431372549" d="M 177 270 L 177 275 L 176 275 L 177 270 Z " /><path fill="rgb(254,66,77)" stroke="rgb(254,66,77)" stroke-width="0" opacity="0.996078431372549" d="M 413 270 L 414 272 Q 411 273 413 270 Z " /><path fill="rgb(254,66,77)" stroke="rgb(254,66,77)" stroke-width="0" opacity="0.996078431372549" d="M 359 273 L 361 274 L 359 275 L 359 273 Z " /><path fill="rgb(254,66,77)" stroke="rgb(254,66,77)" stroke-width="0" opacity="0.996078431372549" d="M 228 279 L 228 283 L 227 283 L 228 279 Z " /><path fill="rgb(254,66,77)" stroke="rgb(254,66,77)" stroke-width="0" opacity="0.996078431372549" d="M 176 283 L 176 286 L 175 286 L 176 283 Z " /><path fill="rgb(254,66,77)" stroke="rgb(254,66,77)" stroke-width="0" opacity="0.996078431372549" d="M 227 288 L 227 291 L 226 291 L 227 288 Z " /><path fill="rgb(254,66,77)" stroke="rgb(254,66,77)" stroke-width="0" opacity="0.996078431372549" d="M 365 296 L 366 298 L 365 296 Z " /><path fill="rgb(254,66,77)" stroke="rgb(254,66,77)" stroke-width="0" opacity="0.996078431372549" d="M 406 303 L 407 305 Q 404 306 406 303 Z " /><path fill="rgb(254,66,77)" stroke="rgb(254,66,77)" stroke-width="0" opacity="0.996078431372549" d="M 220 320 L 221 322 Q 218 323 220 320 Z " /><path fill="rgb(254,66,77)" stroke="rgb(254,66,77)" stroke-width="0" opacity="0.996078431372549" d="M 166 322 L 165 324 L 166 322 Z " /><path fill="rgb(254,66,77)" stroke="rgb(254,66,77)" stroke-width="0" opacity="0.996078431372549" d="M 163 327 L 162 329 L 163 327 Z " /><path fill="rgb(254,66,77)" stroke="rgb(254,66,77)" stroke-width="0" opacity="0.996078431372549" d="M 160 331 L 158 334 L 160 331 Z " /><path fill="rgb(254,66,77)" stroke="rgb(254,66,77)" stroke-width="0" opacity="0.996078431372549" d="M 155 335 L 154 337 L 155 335 Z " /><path fill="rgb(254,66,77)" stroke="rgb(254,66,77)" stroke-width="0" opacity="0.996078431372549" d="M 134 343 L 135 345 Q 132 346 134 343 Z " /><path fill="rgb(254,66,77)" stroke="rgb(254,66,77)" stroke-width="0" opacity="0.996078431372549" d="M 124 345 L 127 346 L 124 346 L 124 345 Z " /><path fill="rgb(254,66,77)" stroke="rgb(254,66,77)" stroke-width="0" opacity="0.996078431372549" d="M 207 350 L 206 352 L 207 350 Z " /><path fill="rgb(254,66,77)" stroke="rgb(254,66,77)" stroke-width="0" opacity="0.996078431372549" d="M 203 356 L 202 358 L 203 356 Z " /><path fill="rgb(254,66,77)" stroke="rgb(254,66,77)" stroke-width="0" opacity="0.996078431372549" d="M 336 356 L 336 358 L 334 358 L 336 356 Z " /><path fill="rgb(254,66,77)" stroke="rgb(254,66,77)" stroke-width="0" opacity="0.996078431372549" d="M 201 359 L 199 362 L 201 359 Z " /><path fill="rgb(254,66,77)" stroke="rgb(254,66,77)" stroke-width="0" opacity="0.996078431372549" d="M 198 363 L 187 375 L 198 363 Z " /><path fill="rgb(254,66,77)" stroke="rgb(254,66,77)" stroke-width="0" opacity="0.996078431372549" d="M 184 376 L 183 378 L 184 376 Z " /><path fill="rgb(254,66,77)" stroke="rgb(254,66,77)" stroke-width="0" opacity="0.996078431372549" d="M 389 383 L 390 385 Q 387 386 389 383 Z " /><path fill="rgb(254,66,77)" stroke="rgb(254,66,77)" stroke-width="0" opacity="0.996078431372549" d="M 159 389 Q 161 388 160 391 L 159 389 Z " /><path fill="rgb(254,66,77)" stroke="rgb(254,66,77)" stroke-width="0" opacity="0.996078431372549" d="M 156 390 Q 158 389 157 392 L 156 390 Z " /><path fill="rgb(254,66,77)" stroke="rgb(254,66,77)" stroke-width="0" opacity="0.996078431372549" d="M 141 393 L 143 394 L 141 394 L 141 393 Z " /><path fill="rgb(254,66,77)" stroke="rgb(254,66,77)" stroke-width="0" opacity="0.996078431372549" d="M 23 394 L 50 395 L 25 395 L 24 396 L 23 394 Z " /><path fill="rgb(254,66,77)" stroke="rgb(254,66,77)" stroke-width="0" opacity="0.996078431372549" d="M 130 394 L 134 395 L 130 395 L 130 394 Z " /><path fill="rgb(255,48,61)" stroke="rgb(255,48,61)" stroke-width="0" opacity="1" d="M 8 1 L 9 3 L 9 1 L 491 1 L 491 3 L 492 3 L 493 1 L 496 2 L 496 4 Q 499 3 498 6 L 500 9 L 500 494 L 498 498 Q 495 497 496 500 L 493 500 L 494 498 L 492 498 L 492 500 L 8 500 Q 9 497 7 498 L 7 500 L 4 500 L 2 497 L 1 495 L 3 495 L 3 493 L 0 493 L 0 9 Q 4 11 3 8 L 1 8 L 2 4 Q 5 5 4 2 L 7 2 L 8 1 Z M 24 107 L 24 260 L 23 261 L 24 396 L 25 395 L 134 395 L 154 391 L 157 392 L 157 390 L 160 391 L 160 389 Q 175 384 187 375 Q 209 355 219 324 Q 218 321 221 322 L 220 321 L 225 303 L 227 284 L 228 283 L 228 270 L 229 269 L 228 223 L 227 222 L 227 214 L 224 197 L 220 185 L 221 182 L 219 181 L 220 179 L 218 178 Q 212 156 198 140 Q 186 125 169 116 Q 166 117 167 115 L 166 115 L 155 111 L 144 109 L 135 109 L 134 108 L 67 108 L 66 107 L 24 107 Z M 324 113 L 323 114 L 254 114 L 254 388 L 255 388 L 298 388 L 299 182 L 312 245 L 311 249 L 313 249 L 335 354 L 334 358 L 336 358 L 342 388 L 388 388 L 388 385 L 390 385 L 389 384 L 405 309 Q 403 304 407 305 L 406 304 L 412 276 Q 410 271 414 272 L 413 271 L 422 229 Q 420 224 424 225 L 423 224 L 429 196 Q 427 191 431 192 L 430 191 L 431 183 L 432 183 L 432 388 L 433 388 L 476 388 L 476 115 L 476 114 L 406 114 L 386 203 Q 387 207 385 206 L 385 208 L 384 212 Q 385 216 383 215 L 383 217 L 382 221 Q 383 225 381 224 L 381 226 L 366 297 L 364 296 L 362 283 L 360 278 L 361 274 L 359 273 L 358 269 L 359 265 L 357 264 L 345 211 L 346 207 L 344 206 L 343 202 L 344 198 L 342 197 L 330 144 L 331 140 L 329 139 L 328 135 L 329 131 L 327 130 L 324 113 Z " /><path fill="rgb(255,48,61)" stroke="rgb(255,48,61)" stroke-width="0" opacity="1" d="M 74 157 L 113 157 L 114 158 L 127 158 L 133 159 L 134 161 L 137 160 Q 152 165 161 177 Q 169 187 172 202 L 172 203 Q 174 202 173 207 L 175 213 L 176 232 L 177 233 L 177 270 L 176 271 L 175 291 L 171 309 Q 167 325 156 335 Q 148 342 135 344 L 133 344 L 133 345 L 124 345 L 123 346 L 73 346 L 73 334 L 74 333 L 74 157 Z " /><path fill="rgb(254,253,253)" stroke="rgb(254,253,253)" stroke-width="0" opacity="0.996078431372549" d="M 25 108 L 26 174 L 26 109 L 115 109 L 116 108 L 130 108 L 130 109 L 116 110 L 136 110 L 141 109 L 141 110 L 137 111 L 145 111 L 148 110 L 148 111 L 145 112 L 150 112 L 153 111 L 153 112 L 151 113 L 155 113 L 157 112 L 157 113 L 155 114 L 158 114 L 160 113 L 160 115 L 163 114 L 163 116 L 165 115 L 165 117 L 168 116 L 170 118 L 170 119 L 172 118 L 175 121 L 175 122 L 177 121 L 178 124 L 180 123 L 181 126 L 183 125 L 186 129 L 185 130 L 194 138 L 195 137 L 198 141 L 198 143 L 199 144 Q 200 142 201 145 L 200 147 Q 202 145 204 149 L 203 151 L 206 152 L 207 154 L 206 156 L 208 156 L 207 158 L 209 158 L 208 160 L 211 161 L 212 164 L 211 166 L 213 166 L 212 168 L 214 168 L 213 170 L 215 170 L 214 173 L 216 173 L 215 175 L 217 175 L 216 178 L 218 178 L 217 181 L 219 181 L 218 184 L 220 184 L 219 187 L 221 187 L 220 191 L 222 191 L 221 195 L 223 195 L 222 200 L 223 200 L 224 198 L 224 200 L 223 205 L 224 205 L 225 203 L 225 206 Q 223 207 224 212 L 225 212 L 226 209 L 226 212 Q 224 213 225 219 L 226 219 L 227 216 L 227 220 L 226 221 L 226 231 L 227 231 L 228 226 L 228 233 L 227 234 L 227 273 Q 229 274 228 279 L 227 279 L 227 274 L 226 284 L 227 288 L 226 288 L 226 285 L 225 292 L 226 295 L 225 295 L 225 293 L 224 298 L 225 301 L 224 301 L 224 299 L 223 303 L 224 305 L 222 305 L 223 310 L 222 310 L 222 308 L 221 312 L 222 313 L 220 313 L 221 317 L 219 317 L 220 320 L 218 320 L 219 323 L 217 323 L 218 326 L 216 326 L 217 329 L 215 329 L 216 331 L 214 331 L 215 334 L 213 334 L 214 336 L 212 336 L 213 338 L 211 338 L 212 340 L 210 340 L 211 342 L 209 342 L 210 344 L 208 344 L 209 346 L 207 346 L 208 348 L 206 348 L 207 350 L 204 351 L 205 353 L 202 357 L 200 357 L 201 359 L 198 360 L 197 362 L 198 363 L 195 366 L 194 365 L 187 372 L 188 373 L 185 376 L 183 375 Q 184 377 181 379 L 179 378 L 178 381 L 176 382 L 174 381 L 174 383 L 172 382 L 172 384 L 170 383 L 170 385 L 168 384 L 168 386 L 166 385 L 166 387 L 163 386 L 163 388 L 161 387 L 161 389 L 158 388 L 158 390 L 155 389 L 155 391 L 150 390 L 150 391 L 151 392 L 150 392 L 145 391 L 145 392 L 146 393 L 145 393 Q 143 391 138 392 L 138 393 L 140 394 L 137 394 L 136 393 L 25 393 L 25 177 L 24 176 L 25 108 Z M 74 155 L 74 156 L 106 156 L 74 155 Z M 108 156 L 107 157 L 74 157 L 74 248 L 73 157 L 72 347 L 98 347 L 99 346 L 117 346 L 118 347 L 131 347 L 128 346 L 128 345 L 133 346 L 137 346 L 136 345 L 136 344 L 141 345 L 141 343 L 144 344 L 144 342 L 146 343 L 146 341 L 148 342 L 147 341 L 150 339 L 152 340 L 153 337 L 155 338 L 154 337 L 157 334 L 159 334 Q 161 335 160 333 L 160 331 Q 162 327 164 329 L 163 327 L 164 325 L 167 324 L 166 322 L 168 322 L 167 319 L 169 319 L 168 317 L 170 317 L 169 314 L 171 314 L 170 311 L 172 311 L 171 308 L 173 308 L 172 304 L 174 304 L 173 301 L 174 298 L 174 300 L 175 300 L 174 296 L 175 293 L 175 295 L 176 295 L 175 290 L 176 286 L 176 289 L 177 289 Q 179 282 176 281 L 177 275 L 177 280 L 178 280 L 178 266 L 177 265 L 177 238 L 178 237 L 178 223 L 177 227 L 176 227 L 177 222 L 177 214 L 176 217 L 175 217 L 176 213 L 176 208 L 175 210 L 174 210 L 175 205 L 173 205 L 174 201 L 172 201 L 173 198 L 171 198 L 172 195 L 170 195 L 171 192 L 169 192 L 170 189 L 168 189 L 169 187 L 167 187 L 168 185 L 166 185 L 167 183 L 165 183 L 166 181 L 163 180 L 164 178 L 163 178 Q 160 177 162 176 L 161 174 L 160 174 L 154 169 L 155 167 L 153 168 L 150 166 L 149 163 L 147 164 L 147 162 L 145 163 L 145 161 L 143 162 L 143 160 L 140 161 L 140 159 L 137 160 L 135 160 L 137 159 L 137 158 L 133 159 L 130 159 L 132 158 L 132 157 Q 126 156 125 158 L 119 158 L 124 157 L 108 156 Z M 179 238 L 178 264 L 179 264 L 179 238 Z M 100 347 L 100 348 L 116 348 L 100 347 Z " /><path fill="rgb(254,253,253)" stroke="rgb(254,253,253)" stroke-width="0" opacity="0.996078431372549" d="M 324 115 L 324 117 L 323 120 L 325 120 L 324 125 L 325 125 L 326 123 L 326 126 L 325 129 L 327 129 L 326 134 L 327 134 L 328 132 L 328 134 L 327 138 L 329 138 L 328 143 L 329 143 L 330 141 L 330 143 L 329 147 L 331 147 L 330 152 L 331 152 L 332 150 L 332 152 L 331 156 L 333 156 L 332 161 L 333 161 L 334 159 L 334 161 L 333 165 L 334 165 L 335 163 L 335 166 L 334 170 L 335 170 L 336 168 L 336 170 L 335 174 L 336 174 L 337 172 L 337 175 L 336 179 L 337 179 L 338 177 L 338 179 L 337 183 L 338 183 L 339 181 L 339 184 L 338 187 L 340 187 L 339 192 L 340 192 L 341 190 L 341 193 L 340 196 L 342 196 L 341 201 L 342 201 L 343 199 L 343 201 L 342 205 L 344 205 L 343 210 L 344 210 L 345 208 L 345 210 L 344 214 L 346 214 L 345 219 L 346 219 L 347 217 L 347 219 L 346 223 L 348 223 L 347 228 L 348 228 L 349 226 L 349 228 L 348 232 L 349 232 L 350 230 L 350 233 L 349 237 L 350 237 L 351 235 L 351 237 L 350 241 L 351 241 L 352 239 L 352 242 L 351 246 L 352 246 L 353 244 L 353 246 L 352 250 L 353 250 L 354 248 L 354 251 L 353 254 L 355 254 L 354 259 L 355 259 L 356 257 L 356 260 L 355 263 L 357 263 L 356 268 L 357 268 L 358 266 L 358 268 L 357 272 L 359 272 L 358 277 L 359 277 L 360 275 L 360 277 L 359 281 L 361 281 L 360 286 L 361 286 L 362 284 L 362 286 L 361 290 L 363 290 L 362 295 L 363 295 L 364 293 L 364 295 L 363 299 L 364 299 L 365 297 L 367 300 L 367 297 L 366 295 L 367 295 L 368 296 L 368 293 L 367 291 L 369 291 L 368 286 L 369 286 L 370 287 L 370 284 L 369 281 L 370 281 L 371 282 L 371 279 L 370 277 L 371 277 L 372 278 L 372 275 L 371 272 L 372 272 L 373 273 L 373 270 L 372 268 L 373 268 L 374 269 L 374 266 L 373 263 L 374 263 L 375 264 L 375 261 L 374 259 L 375 259 L 376 260 L 376 257 L 375 254 L 376 254 L 377 255 L 377 252 L 376 250 L 378 250 L 377 245 L 378 245 L 379 246 L 379 243 L 378 241 L 380 241 L 379 236 L 380 236 L 381 237 L 381 234 L 380 232 L 382 232 L 381 227 L 382 227 L 383 228 L 383 225 L 382 223 L 384 223 L 383 218 L 384 218 L 385 219 L 385 216 L 384 214 L 386 214 L 385 209 L 386 209 L 387 210 L 387 207 L 386 205 L 388 205 L 387 200 L 388 200 L 389 201 L 389 198 L 388 196 L 390 196 L 389 191 L 390 191 L 391 192 L 391 189 L 390 187 L 392 187 L 391 182 L 392 182 L 393 183 L 393 180 L 392 178 L 394 178 L 393 173 L 394 173 L 395 174 L 395 171 L 394 168 L 395 168 L 396 169 L 396 166 L 395 164 L 396 164 L 397 165 L 397 162 L 396 159 L 397 159 L 398 160 L 398 157 L 397 155 L 398 155 L 399 156 L 399 153 L 398 150 L 399 150 L 400 151 L 400 148 L 399 146 L 401 146 L 400 141 L 401 141 L 402 142 L 402 139 L 401 137 L 403 137 L 402 132 L 403 132 L 404 133 L 404 130 L 403 128 L 405 128 L 404 123 L 405 123 L 406 124 L 406 121 L 405 119 L 407 119 L 408 116 L 475 116 L 475 387 L 475 387 L 434 387 L 434 175 L 433 177 L 432 175 L 431 178 L 432 181 L 431 181 L 431 179 L 430 183 L 431 185 L 430 185 L 430 183 L 429 187 L 430 190 L 429 190 L 429 188 L 428 192 L 429 195 L 428 195 L 428 193 L 427 197 L 428 199 L 426 199 L 427 204 L 426 204 L 426 202 L 425 206 L 426 209 L 425 209 L 425 207 L 424 211 L 425 213 L 423 213 L 424 218 L 423 218 L 423 216 L 422 220 L 423 223 L 422 223 L 422 221 L 421 225 L 422 227 L 420 227 L 421 232 L 420 232 L 420 230 L 419 235 L 420 237 L 419 237 L 419 235 L 418 239 L 419 242 L 418 242 L 418 240 L 417 244 L 418 246 L 416 246 L 417 251 L 416 251 L 416 249 L 415 253 L 416 256 L 415 256 L 415 254 L 414 258 L 415 260 L 413 260 L 414 265 L 413 265 L 413 263 L 412 267 L 413 270 L 412 270 L 412 268 L 411 272 L 412 275 L 411 275 L 411 273 L 410 277 L 411 279 L 409 279 L 410 284 L 409 284 L 409 282 L 408 286 L 409 289 L 408 289 L 408 287 L 407 291 L 408 293 L 406 293 L 407 298 L 406 298 L 406 296 L 405 300 L 406 303 L 405 303 L 405 301 L 404 305 L 405 307 L 403 307 L 404 312 L 402 312 L 403 317 L 402 317 L 402 315 L 401 319 L 402 322 L 401 322 L 401 320 L 400 324 L 401 326 L 399 326 L 400 331 L 399 331 L 399 329 L 398 333 L 399 336 L 398 336 L 398 334 L 397 338 L 398 340 L 396 340 L 397 345 L 396 345 L 396 343 L 395 347 L 396 350 L 395 350 L 395 348 L 394 352 L 395 355 L 394 355 L 394 353 L 393 357 L 394 359 L 392 359 L 393 364 L 392 364 L 392 362 L 391 366 L 392 369 L 391 369 L 391 367 L 390 371 L 391 373 L 389 373 L 390 378 L 389 378 L 389 376 L 388 380 L 389 383 L 388 383 L 388 381 L 387 385 L 388 388 L 387 388 L 387 386 L 386 387 L 344 387 L 343 388 L 343 387 L 343 383 L 341 384 L 342 379 L 340 379 L 341 374 L 340 374 L 340 375 L 339 373 L 340 369 L 339 369 L 339 370 L 338 369 L 339 365 L 337 365 L 338 360 L 337 360 L 337 361 L 336 359 L 337 355 L 336 355 L 336 356 L 335 354 L 336 350 L 335 350 L 335 351 L 334 350 L 335 346 L 333 346 L 334 341 L 333 341 L 333 342 L 332 340 L 333 336 L 332 336 L 332 337 L 331 335 L 332 331 L 331 331 L 331 332 L 330 331 L 331 327 L 329 327 L 330 322 L 329 322 L 329 323 L 328 321 L 329 317 L 328 317 L 328 318 L 327 316 L 328 312 L 327 312 L 327 313 L 326 312 L 327 308 L 325 308 L 326 303 L 325 303 L 325 304 L 324 302 L 325 298 L 324 298 L 324 299 L 323 298 L 324 293 L 323 293 L 323 294 L 322 293 L 323 289 L 321 289 L 322 284 L 321 284 L 321 285 L 320 283 L 321 279 L 320 279 L 320 280 L 319 279 L 320 275 L 318 275 L 319 270 L 317 270 L 318 265 L 317 265 L 317 266 L 316 264 L 317 260 L 316 260 L 316 261 L 315 260 L 316 256 L 314 256 L 315 251 L 314 251 L 314 252 L 313 250 L 314 246 L 313 246 L 313 247 L 312 245 L 313 241 L 312 241 L 312 242 L 311 241 L 312 237 L 310 237 L 311 232 L 310 232 L 310 233 L 309 231 L 310 227 L 309 227 L 309 228 L 308 226 L 309 222 L 308 222 L 308 223 L 307 222 L 308 218 L 306 218 L 307 213 L 306 213 L 306 214 L 305 212 L 306 208 L 305 208 L 305 209 L 304 208 L 305 203 L 304 203 L 304 204 L 303 203 L 304 199 L 302 199 L 303 194 L 302 194 L 302 195 L 301 193 L 302 189 L 301 189 L 301 190 L 300 189 L 301 184 L 300 184 L 300 185 L 299 184 L 300 180 L 299 180 L 299 181 L 298 179 L 299 176 L 298 176 L 298 177 L 297 175 L 296 387 L 256 387 L 255 387 L 255 116 L 323 116 L 324 115 Z " /><path fill="rgb(254,253,253)" stroke="rgb(254,253,253)" stroke-width="0" opacity="0.996078431372549" d="M 229 245 L 229 262 L 228 262 L 229 245 Z " /><path fill="rgb(254,253,253)" stroke="rgb(254,253,253)" stroke-width="0" opacity="0.996078431372549" d="M 24 345 L 24 394 L 23 394 L 24 345 Z " /><path fill="rgb(254,253,253)" stroke="rgb(254,253,253)" stroke-width="0" opacity="0.996078431372549" d="M 51 394 L 129 395 L 51 395 L 51 394 Z " /><path fill="rgb(255,255,255)" stroke="rgb(255,255,255)" stroke-width="0" opacity="1" d="M 25 108 L 115 109 L 26 109 L 26 174 L 25 108 Z " /><path fill="rgb(255,255,255)" stroke="rgb(255,255,255)" stroke-width="0" opacity="1" d="M 117 109 L 136 110 L 117 110 L 117 109 Z " /><path fill="rgb(255,255,255)" stroke="rgb(255,255,255)" stroke-width="0" opacity="1" d="M 138 110 L 145 110 L 150 112 L 146 112 Q 144 109 138 111 L 138 110 Z " /><path fill="rgb(255,255,255)" stroke="rgb(255,255,255)" stroke-width="0" opacity="1" d="M 152 112 L 158 114 L 156 114 L 152 113 L 152 112 Z " /><path fill="rgb(255,255,255)" stroke="rgb(255,255,255)" stroke-width="0" opacity="1" d="M 163 115 L 166 117 L 165 117 L 163 115 Z " /><path fill="rgb(255,255,255)" stroke="rgb(255,255,255)" stroke-width="0" opacity="1" d="M 254 115 L 323 116 L 255 116 L 255 387 L 256 387 L 296 387 L 297 175 L 297 388 L 255 388 L 254 388 L 254 115 Z " /><path fill="rgb(255,255,255)" stroke="rgb(255,255,255)" stroke-width="0" opacity="1" d="M 406 115 L 476 115 L 476 116 L 476 388 L 434 388 L 433 388 L 433 176 L 434 176 L 434 387 L 435 387 L 475 387 L 475 117 L 475 116 L 407 116 L 407 119 L 406 115 Z " /><path fill="rgb(255,255,255)" stroke="rgb(255,255,255)" stroke-width="0" opacity="1" d="M 324 117 L 324 120 L 323 120 L 324 117 Z " /><path fill="rgb(255,255,255)" stroke="rgb(255,255,255)" stroke-width="0" opacity="1" d="M 170 118 L 172 120 L 171 119 L 170 118 Z " /><path fill="rgb(255,255,255)" stroke="rgb(255,255,255)" stroke-width="0" opacity="1" d="M 174 120 Q 185 127 194 137 Q 204 147 210 161 L 208 160 Q 199 139 182 126 L 175 122 L 174 120 Z " /><path fill="rgb(255,255,255)" stroke="rgb(255,255,255)" stroke-width="0" opacity="1" d="M 406 120 L 406 124 L 405 124 L 406 120 Z " /><path fill="rgb(255,255,255)" stroke="rgb(255,255,255)" stroke-width="0" opacity="1" d="M 325 121 L 325 125 L 324 125 L 325 121 Z " /><path fill="rgb(255,255,255)" stroke="rgb(255,255,255)" stroke-width="0" opacity="1" d="M 405 125 L 405 128 L 404 128 L 405 125 Z " /><path fill="rgb(255,255,255)" stroke="rgb(255,255,255)" stroke-width="0" opacity="1" d="M 326 126 L 326 129 L 325 129 L 326 126 Z " /><path fill="rgb(255,255,255)" stroke="rgb(255,255,255)" stroke-width="0" opacity="1" d="M 404 129 L 404 133 L 403 133 L 404 129 Z " /><path fill="rgb(255,255,255)" stroke="rgb(255,255,255)" stroke-width="0" opacity="1" d="M 327 130 L 328 138 L 327 138 L 327 130 Z " /><path fill="rgb(255,255,255)" stroke="rgb(255,255,255)" stroke-width="0" opacity="1" d="M 403 134 L 403 137 L 402 137 L 403 134 Z " /><path fill="rgb(255,255,255)" stroke="rgb(255,255,255)" stroke-width="0" opacity="1" d="M 402 138 L 402 142 L 401 142 L 402 138 Z " /><path fill="rgb(255,255,255)" stroke="rgb(255,255,255)" stroke-width="0" opacity="1" d="M 329 139 L 330 147 L 329 147 L 329 139 Z " /><path fill="rgb(255,255,255)" stroke="rgb(255,255,255)" stroke-width="0" opacity="1" d="M 401 143 L 401 146 L 400 146 L 401 143 Z " /><path fill="rgb(255,255,255)" stroke="rgb(255,255,255)" stroke-width="0" opacity="1" d="M 400 147 L 400 151 L 399 151 L 400 147 Z " /><path fill="rgb(255,255,255)" stroke="rgb(255,255,255)" stroke-width="0" opacity="1" d="M 331 148 L 332 156 L 331 156 L 331 148 Z " /><path fill="rgb(255,255,255)" stroke="rgb(255,255,255)" stroke-width="0" opacity="1" d="M 399 152 L 399 156 L 398 160 L 397 157 L 399 152 Z " /><path fill="rgb(255,255,255)" stroke="rgb(255,255,255)" stroke-width="0" opacity="1" d="M 74 155 L 106 156 L 74 156 L 74 155 Z " /><path fill="rgb(255,255,255)" stroke="rgb(255,255,255)" stroke-width="0" opacity="1" d="M 108 156 L 124 157 L 108 157 L 108 156 Z " /><path fill="rgb(255,255,255)" stroke="rgb(255,255,255)" stroke-width="0" opacity="1" d="M 73 157 L 73 346 L 98 347 L 72 347 L 73 157 Z " /><path fill="rgb(255,255,255)" stroke="rgb(255,255,255)" stroke-width="0" opacity="1" d="M 126 157 L 132 158 L 126 158 L 126 157 Z " /><path fill="rgb(255,255,255)" stroke="rgb(255,255,255)" stroke-width="0" opacity="1" d="M 333 157 L 334 165 L 333 165 L 333 157 Z " /><path fill="rgb(255,255,255)" stroke="rgb(255,255,255)" stroke-width="0" opacity="1" d="M 134 158 Q 144 159 150 165 L 149 164 Q 143 160 134 159 L 134 158 Z " /><path fill="rgb(255,255,255)" stroke="rgb(255,255,255)" stroke-width="0" opacity="1" d="M 397 161 L 397 165 L 396 169 L 395 166 L 397 161 Z " /><path fill="rgb(255,255,255)" stroke="rgb(255,255,255)" stroke-width="0" opacity="1" d="M 212 164 L 216 175 L 215 175 L 212 164 Z " /><path fill="rgb(255,255,255)" stroke="rgb(255,255,255)" stroke-width="0" opacity="1" d="M 152 165 L 161 174 Q 168 181 171 193 L 170 193 Q 165 177 155 168 L 152 165 Z " /><path fill="rgb(255,255,255)" stroke="rgb(255,255,255)" stroke-width="0" opacity="1" d="M 335 166 L 336 174 L 335 174 L 335 166 Z " /><path fill="rgb(255,255,255)" stroke="rgb(255,255,255)" stroke-width="0" opacity="1" d="M 395 170 L 395 174 L 394 178 L 393 175 L 395 170 Z " /><path fill="rgb(255,255,255)" stroke="rgb(255,255,255)" stroke-width="0" opacity="1" d="M 299 175 L 299 178 L 298 178 L 299 175 Z " /><path fill="rgb(255,255,255)" stroke="rgb(255,255,255)" stroke-width="0" opacity="1" d="M 337 175 L 338 183 L 337 183 L 337 175 Z " /><path fill="rgb(255,255,255)" stroke="rgb(255,255,255)" stroke-width="0" opacity="1" d="M 432 175 L 432 178 L 431 178 L 432 175 Z " /><path fill="rgb(255,255,255)" stroke="rgb(255,255,255)" stroke-width="0" opacity="1" d="M 25 176 L 25 393 L 136 394 L 24 394 L 25 176 Z " /><path fill="rgb(255,255,255)" stroke="rgb(255,255,255)" stroke-width="0" opacity="1" d="M 217 176 L 220 187 L 219 187 L 217 176 Z " /><path fill="rgb(255,255,255)" stroke="rgb(255,255,255)" stroke-width="0" opacity="1" d="M 300 179 L 302 192 L 301 192 L 300 179 Z " /><path fill="rgb(255,255,255)" stroke="rgb(255,255,255)" stroke-width="0" opacity="1" d="M 393 179 L 393 183 L 392 187 L 391 184 L 393 179 Z " /><path fill="rgb(255,255,255)" stroke="rgb(255,255,255)" stroke-width="0" opacity="1" d="M 431 179 L 431 183 L 430 187 L 429 184 L 431 179 Z " /><path fill="rgb(255,255,255)" stroke="rgb(255,255,255)" stroke-width="0" opacity="1" d="M 339 184 L 339 187 L 338 187 L 339 184 Z " /><path fill="rgb(255,255,255)" stroke="rgb(255,255,255)" stroke-width="0" opacity="1" d="M 221 188 L 221 191 L 220 191 L 221 188 Z " /><path fill="rgb(255,255,255)" stroke="rgb(255,255,255)" stroke-width="0" opacity="1" d="M 340 188 L 340 192 L 339 192 L 340 188 Z " /><path fill="rgb(255,255,255)" stroke="rgb(255,255,255)" stroke-width="0" opacity="1" d="M 391 188 L 391 192 L 390 196 L 389 193 L 391 188 Z " /><path fill="rgb(255,255,255)" stroke="rgb(255,255,255)" stroke-width="0" opacity="1" d="M 429 188 L 429 192 L 428 192 L 429 188 Z " /><path fill="rgb(255,255,255)" stroke="rgb(255,255,255)" stroke-width="0" opacity="1" d="M 222 192 L 222 195 L 221 195 L 222 192 Z " /><path fill="rgb(255,255,255)" stroke="rgb(255,255,255)" stroke-width="0" opacity="1" d="M 303 193 L 303 197 L 302 197 L 303 193 Z " /><path fill="rgb(255,255,255)" stroke="rgb(255,255,255)" stroke-width="0" opacity="1" d="M 341 193 L 341 196 L 340 196 L 341 193 Z " /><path fill="rgb(255,255,255)" stroke="rgb(255,255,255)" stroke-width="0" opacity="1" d="M 428 193 L 428 197 L 427 197 L 428 193 Z " /><path fill="rgb(255,255,255)" stroke="rgb(255,255,255)" stroke-width="0" opacity="1" d="M 223 196 L 224 205 L 223 205 L 223 196 Z " /><path fill="rgb(255,255,255)" stroke="rgb(255,255,255)" stroke-width="0" opacity="1" d="M 342 197 L 343 205 L 342 205 L 342 197 Z " /><path fill="rgb(255,255,255)" stroke="rgb(255,255,255)" stroke-width="0" opacity="1" d="M 389 197 L 389 201 L 388 205 L 387 202 L 389 197 Z " /><path fill="rgb(255,255,255)" stroke="rgb(255,255,255)" stroke-width="0" opacity="1" d="M 304 198 L 306 211 L 305 211 L 304 198 Z " /><path fill="rgb(255,255,255)" stroke="rgb(255,255,255)" stroke-width="0" opacity="1" d="M 427 198 L 427 202 L 426 206 L 425 203 L 427 198 Z " /><path fill="rgb(255,255,255)" stroke="rgb(255,255,255)" stroke-width="0" opacity="1" d="M 174 200 L 174 203 L 173 203 L 174 200 Z " /><path fill="rgb(255,255,255)" stroke="rgb(255,255,255)" stroke-width="0" opacity="1" d="M 175 204 L 176 213 L 175 213 L 175 204 Z " /><path fill="rgb(255,255,255)" stroke="rgb(255,255,255)" stroke-width="0" opacity="1" d="M 225 206 L 226 219 L 225 219 L 225 206 Z " /><path fill="rgb(255,255,255)" stroke="rgb(255,255,255)" stroke-width="0" opacity="1" d="M 344 206 L 345 214 L 344 214 L 344 206 Z " /><path fill="rgb(255,255,255)" stroke="rgb(255,255,255)" stroke-width="0" opacity="1" d="M 387 206 L 387 210 L 386 214 L 385 211 L 387 206 Z " /><path fill="rgb(255,255,255)" stroke="rgb(255,255,255)" stroke-width="0" opacity="1" d="M 425 207 L 425 211 L 424 211 L 425 207 Z " /><path fill="rgb(255,255,255)" stroke="rgb(255,255,255)" stroke-width="0" opacity="1" d="M 307 212 L 307 216 L 306 216 L 307 212 Z " /><path fill="rgb(255,255,255)" stroke="rgb(255,255,255)" stroke-width="0" opacity="1" d="M 424 212 L 424 216 L 423 220 L 422 217 L 424 212 Z " /><path fill="rgb(255,255,255)" stroke="rgb(255,255,255)" stroke-width="0" opacity="1" d="M 177 214 L 177 222 L 176 222 L 177 214 Z " /><path fill="rgb(255,255,255)" stroke="rgb(255,255,255)" stroke-width="0" opacity="1" d="M 346 215 L 347 223 L 346 223 L 346 215 Z " /><path fill="rgb(255,255,255)" stroke="rgb(255,255,255)" stroke-width="0" opacity="1" d="M 385 215 L 385 219 L 384 223 L 383 220 L 385 215 Z " /><path fill="rgb(255,255,255)" stroke="rgb(255,255,255)" stroke-width="0" opacity="1" d="M 308 217 L 309 225 L 308 225 L 308 217 Z " /><path fill="rgb(255,255,255)" stroke="rgb(255,255,255)" stroke-width="0" opacity="1" d="M 227 220 L 227 231 L 226 231 L 227 220 Z " /><path fill="rgb(255,255,255)" stroke="rgb(255,255,255)" stroke-width="0" opacity="1" d="M 422 221 L 422 225 L 421 225 L 422 221 Z " /><path fill="rgb(255,255,255)" stroke="rgb(255,255,255)" stroke-width="0" opacity="1" d="M 178 223 L 178 237 L 177 237 L 178 223 Z " /><path fill="rgb(255,255,255)" stroke="rgb(255,255,255)" stroke-width="0" opacity="1" d="M 348 224 L 349 232 L 348 232 L 348 224 Z " /><path fill="rgb(255,255,255)" stroke="rgb(255,255,255)" stroke-width="0" opacity="1" d="M 383 224 L 383 228 L 382 228 L 383 224 Z " /><path fill="rgb(255,255,255)" stroke="rgb(255,255,255)" stroke-width="0" opacity="1" d="M 310 226 L 310 230 L 309 230 L 310 226 Z " /><path fill="rgb(255,255,255)" stroke="rgb(255,255,255)" stroke-width="0" opacity="1" d="M 421 226 L 421 230 L 419 239 L 418 236 L 421 226 Z " /><path fill="rgb(255,255,255)" stroke="rgb(255,255,255)" stroke-width="0" opacity="1" d="M 382 229 L 382 232 L 381 232 L 382 229 Z " /><path fill="rgb(255,255,255)" stroke="rgb(255,255,255)" stroke-width="0" opacity="1" d="M 311 231 L 311 235 L 310 235 L 311 231 Z " /><path fill="rgb(255,255,255)" stroke="rgb(255,255,255)" stroke-width="0" opacity="1" d="M 228 233 L 228 273 L 227 273 L 228 233 Z " /><path fill="rgb(255,255,255)" stroke="rgb(255,255,255)" stroke-width="0" opacity="1" d="M 350 233 L 351 241 L 350 241 L 350 233 Z " /><path fill="rgb(255,255,255)" stroke="rgb(255,255,255)" stroke-width="0" opacity="1" d="M 381 233 L 381 237 L 380 237 L 381 233 Z " /><path fill="rgb(255,255,255)" stroke="rgb(255,255,255)" stroke-width="0" opacity="1" d="M 312 236 L 313 244 L 312 244 L 312 236 Z " /><path fill="rgb(255,255,255)" stroke="rgb(255,255,255)" stroke-width="0" opacity="1" d="M 179 238 L 179 264 L 178 264 L 179 238 Z " /><path fill="rgb(255,255,255)" stroke="rgb(255,255,255)" stroke-width="0" opacity="1" d="M 380 238 L 380 241 L 379 241 L 380 238 Z " /><path fill="rgb(255,255,255)" stroke="rgb(255,255,255)" stroke-width="0" opacity="1" d="M 418 240 L 418 244 L 417 244 L 418 240 Z " /><path fill="rgb(255,255,255)" stroke="rgb(255,255,255)" stroke-width="0" opacity="1" d="M 352 242 L 353 250 L 352 250 L 352 242 Z " /><path fill="rgb(255,255,255)" stroke="rgb(255,255,255)" stroke-width="0" opacity="1" d="M 379 242 L 379 246 L 378 246 L 379 242 Z " /><path fill="rgb(255,255,255)" stroke="rgb(255,255,255)" stroke-width="0" opacity="1" d="M 314 245 L 314 249 L 313 249 L 314 245 Z " /><path fill="rgb(255,255,255)" stroke="rgb(255,255,255)" stroke-width="0" opacity="1" d="M 417 245 L 417 249 L 416 253 L 415 250 L 417 245 Z " /><path fill="rgb(255,255,255)" stroke="rgb(255,255,255)" stroke-width="0" opacity="1" d="M 378 247 L 378 250 L 377 250 L 378 247 Z " /><path fill="rgb(255,255,255)" stroke="rgb(255,255,255)" stroke-width="0" opacity="1" d="M 315 250 L 315 254 L 314 254 L 315 250 Z " /><path fill="rgb(255,255,255)" stroke="rgb(255,255,255)" stroke-width="0" opacity="1" d="M 354 251 L 354 254 L 353 254 L 354 251 Z " /><path fill="rgb(255,255,255)" stroke="rgb(255,255,255)" stroke-width="0" opacity="1" d="M 377 251 L 377 255 L 376 255 L 377 251 Z " /><path fill="rgb(255,255,255)" stroke="rgb(255,255,255)" stroke-width="0" opacity="1" d="M 415 254 L 415 258 L 414 258 L 415 254 Z " /><path fill="rgb(255,255,255)" stroke="rgb(255,255,255)" stroke-width="0" opacity="1" d="M 316 255 L 317 263 L 316 263 L 316 255 Z " /><path fill="rgb(255,255,255)" stroke="rgb(255,255,255)" stroke-width="0" opacity="1" d="M 355 255 L 355 259 L 354 259 L 355 255 Z " /><path fill="rgb(255,255,255)" stroke="rgb(255,255,255)" stroke-width="0" opacity="1" d="M 376 256 L 376 260 L 375 264 L 374 261 L 376 256 Z " /><path fill="rgb(255,255,255)" stroke="rgb(255,255,255)" stroke-width="0" opacity="1" d="M 414 259 L 414 263 L 413 267 L 412 264 L 414 259 Z " /><path fill="rgb(255,255,255)" stroke="rgb(255,255,255)" stroke-width="0" opacity="1" d="M 356 260 L 356 263 L 355 263 L 356 260 Z " /><path fill="rgb(255,255,255)" stroke="rgb(255,255,255)" stroke-width="0" opacity="1" d="M 318 264 L 318 268 L 317 268 L 318 264 Z " /><path fill="rgb(255,255,255)" stroke="rgb(255,255,255)" stroke-width="0" opacity="1" d="M 357 264 L 358 272 L 357 272 L 357 264 Z " /><path fill="rgb(255,255,255)" stroke="rgb(255,255,255)" stroke-width="0" opacity="1" d="M 178 265 L 178 280 L 177 280 L 178 265 Z " /><path fill="rgb(255,255,255)" stroke="rgb(255,255,255)" stroke-width="0" opacity="1" d="M 374 265 L 374 269 L 373 273 L 372 270 L 374 265 Z " /><path fill="rgb(255,255,255)" stroke="rgb(255,255,255)" stroke-width="0" opacity="1" d="M 412 268 L 412 272 L 411 272 L 412 268 Z " /><path fill="rgb(255,255,255)" stroke="rgb(255,255,255)" stroke-width="0" opacity="1" d="M 319 269 L 319 273 L 318 273 L 319 269 Z " /><path fill="rgb(255,255,255)" stroke="rgb(255,255,255)" stroke-width="0" opacity="1" d="M 359 273 L 360 281 L 359 281 L 359 273 Z " /><path fill="rgb(255,255,255)" stroke="rgb(255,255,255)" stroke-width="0" opacity="1" d="M 411 273 L 411 277 L 410 277 L 411 273 Z " /><path fill="rgb(255,255,255)" stroke="rgb(255,255,255)" stroke-width="0" opacity="1" d="M 227 274 L 227 284 L 226 284 L 227 274 Z " /><path fill="rgb(255,255,255)" stroke="rgb(255,255,255)" stroke-width="0" opacity="1" d="M 320 274 L 321 282 L 320 282 L 320 274 Z " /><path fill="rgb(255,255,255)" stroke="rgb(255,255,255)" stroke-width="0" opacity="1" d="M 372 274 L 372 278 L 371 282 L 370 279 L 372 274 Z " /><path fill="rgb(255,255,255)" stroke="rgb(255,255,255)" stroke-width="0" opacity="1" d="M 410 278 L 410 282 L 409 286 L 408 283 L 410 278 Z " /><path fill="rgb(255,255,255)" stroke="rgb(255,255,255)" stroke-width="0" opacity="1" d="M 177 281 L 177 289 L 176 289 L 177 281 Z " /><path fill="rgb(255,255,255)" stroke="rgb(255,255,255)" stroke-width="0" opacity="1" d="M 361 282 L 362 290 L 361 290 L 361 282 Z " /><path fill="rgb(255,255,255)" stroke="rgb(255,255,255)" stroke-width="0" opacity="1" d="M 322 283 L 322 287 L 321 287 L 322 283 Z " /><path fill="rgb(255,255,255)" stroke="rgb(255,255,255)" stroke-width="0" opacity="1" d="M 370 283 L 370 287 L 369 291 L 368 288 L 370 283 Z " /><path fill="rgb(255,255,255)" stroke="rgb(255,255,255)" stroke-width="0" opacity="1" d="M 226 285 L 226 292 L 225 292 L 226 285 Z " /><path fill="rgb(255,255,255)" stroke="rgb(255,255,255)" stroke-width="0" opacity="1" d="M 408 287 L 408 291 L 407 291 L 408 287 Z " /><path fill="rgb(255,255,255)" stroke="rgb(255,255,255)" stroke-width="0" opacity="1" d="M 323 288 L 325 301 L 324 301 L 323 288 Z " /><path fill="rgb(255,255,255)" stroke="rgb(255,255,255)" stroke-width="0" opacity="1" d="M 176 290 L 176 295 L 175 295 L 176 290 Z " /><path fill="rgb(255,255,255)" stroke="rgb(255,255,255)" stroke-width="0" opacity="1" d="M 363 291 L 364 299 L 363 299 L 363 291 Z " /><path fill="rgb(255,255,255)" stroke="rgb(255,255,255)" stroke-width="0" opacity="1" d="M 368 292 L 368 296 L 367 300 L 366 297 L 368 292 Z " /><path fill="rgb(255,255,255)" stroke="rgb(255,255,255)" stroke-width="0" opacity="1" d="M 407 292 L 407 296 L 406 300 L 405 297 L 407 292 Z " /><path fill="rgb(255,255,255)" stroke="rgb(255,255,255)" stroke-width="0" opacity="1" d="M 225 293 L 225 298 L 224 298 L 225 293 Z " /><path fill="rgb(255,255,255)" stroke="rgb(255,255,255)" stroke-width="0" opacity="1" d="M 175 296 L 175 300 L 174 300 L 175 296 Z " /><path fill="rgb(255,255,255)" stroke="rgb(255,255,255)" stroke-width="0" opacity="1" d="M 224 299 L 224 303 L 223 303 L 224 299 Z " /><path fill="rgb(255,255,255)" stroke="rgb(255,255,255)" stroke-width="0" opacity="1" d="M 174 301 L 174 304 L 173 304 L 174 301 Z " /><path fill="rgb(255,255,255)" stroke="rgb(255,255,255)" stroke-width="0" opacity="1" d="M 405 301 L 405 305 L 404 305 L 405 301 Z " /><path fill="rgb(255,255,255)" stroke="rgb(255,255,255)" stroke-width="0" opacity="1" d="M 326 302 L 326 306 L 325 306 L 326 302 Z " /><path fill="rgb(255,255,255)" stroke="rgb(255,255,255)" stroke-width="0" opacity="1" d="M 223 304 L 223 308 L 221 315 L 220 313 L 223 304 Z " /><path fill="rgb(255,255,255)" stroke="rgb(255,255,255)" stroke-width="0" opacity="1" d="M 173 305 L 173 308 L 172 308 L 173 305 Z " /><path fill="rgb(255,255,255)" stroke="rgb(255,255,255)" stroke-width="0" opacity="1" d="M 404 306 L 404 310 L 403 310 L 404 306 Z " /><path fill="rgb(255,255,255)" stroke="rgb(255,255,255)" stroke-width="0" opacity="1" d="M 327 307 L 328 315 L 327 315 L 327 307 Z " /><path fill="rgb(255,255,255)" stroke="rgb(255,255,255)" stroke-width="0" opacity="1" d="M 403 311 L 403 315 L 402 319 L 401 316 L 403 311 Z " /><path fill="rgb(255,255,255)" stroke="rgb(255,255,255)" stroke-width="0" opacity="1" d="M 170 315 L 170 317 L 169 319 L 168 318 L 170 315 Z " /><path fill="rgb(255,255,255)" stroke="rgb(255,255,255)" stroke-width="0" opacity="1" d="M 329 316 L 329 320 L 328 320 L 329 316 Z " /><path fill="rgb(255,255,255)" stroke="rgb(255,255,255)" stroke-width="0" opacity="1" d="M 219 319 L 219 322 L 218 324 L 217 323 L 219 319 Z " /><path fill="rgb(255,255,255)" stroke="rgb(255,255,255)" stroke-width="0" opacity="1" d="M 168 320 L 168 322 L 166 325 L 166 324 L 168 320 Z " /><path fill="rgb(255,255,255)" stroke="rgb(255,255,255)" stroke-width="0" opacity="1" d="M 401 320 L 401 324 L 400 324 L 401 320 Z " /><path fill="rgb(255,255,255)" stroke="rgb(255,255,255)" stroke-width="0" opacity="1" d="M 330 321 L 330 325 L 329 325 L 330 321 Z " /><path fill="rgb(255,255,255)" stroke="rgb(255,255,255)" stroke-width="0" opacity="1" d="M 400 325 L 400 329 L 399 333 L 398 330 L 400 325 Z " /><path fill="rgb(255,255,255)" stroke="rgb(255,255,255)" stroke-width="0" opacity="1" d="M 165 326 L 164 328 L 160 334 L 150 341 L 151 339 Q 159 336 163 329 L 165 326 Z " /><path fill="rgb(255,255,255)" stroke="rgb(255,255,255)" stroke-width="0" opacity="1" d="M 331 326 L 332 334 L 331 334 L 331 326 Z " /><path fill="rgb(255,255,255)" stroke="rgb(255,255,255)" stroke-width="0" opacity="1" d="M 216 328 L 216 330 L 215 332 L 214 331 L 216 328 Z " /><path fill="rgb(255,255,255)" stroke="rgb(255,255,255)" stroke-width="0" opacity="1" d="M 214 333 L 214 335 L 204 353 L 204 352 L 214 333 Z " /><path fill="rgb(255,255,255)" stroke="rgb(255,255,255)" stroke-width="0" opacity="1" d="M 398 334 L 398 338 L 397 338 L 398 334 Z " /><path fill="rgb(255,255,255)" stroke="rgb(255,255,255)" stroke-width="0" opacity="1" d="M 333 335 L 333 339 L 332 339 L 333 335 Z " /><path fill="rgb(255,255,255)" stroke="rgb(255,255,255)" stroke-width="0" opacity="1" d="M 397 339 L 397 343 L 396 347 L 395 344 L 397 339 Z " /><path fill="rgb(255,255,255)" stroke="rgb(255,255,255)" stroke-width="0" opacity="1" d="M 334 340 L 334 344 L 333 344 L 334 340 Z " /><path fill="rgb(255,255,255)" stroke="rgb(255,255,255)" stroke-width="0" opacity="1" d="M 147 341 L 148 342 L 139 345 L 139 344 L 147 341 Z " /><path fill="rgb(255,255,255)" stroke="rgb(255,255,255)" stroke-width="0" opacity="1" d="M 133 345 L 137 346 L 133 346 L 133 345 Z " /><path fill="rgb(255,255,255)" stroke="rgb(255,255,255)" stroke-width="0" opacity="1" d="M 335 345 L 336 353 L 335 353 L 335 345 Z " /><path fill="rgb(255,255,255)" stroke="rgb(255,255,255)" stroke-width="0" opacity="1" d="M 118 346 L 131 347 L 118 347 L 118 346 Z " /><path fill="rgb(255,255,255)" stroke="rgb(255,255,255)" stroke-width="0" opacity="1" d="M 100 347 L 116 348 L 100 348 L 100 347 Z " /><path fill="rgb(255,255,255)" stroke="rgb(255,255,255)" stroke-width="0" opacity="1" d="M 395 348 L 395 352 L 394 352 L 395 348 Z " /><path fill="rgb(255,255,255)" stroke="rgb(255,255,255)" stroke-width="0" opacity="1" d="M 394 353 L 394 357 L 393 357 L 394 353 Z " /><path fill="rgb(255,255,255)" stroke="rgb(255,255,255)" stroke-width="0" opacity="1" d="M 203 354 L 201 357 L 189 372 Q 175 384 155 390 L 155 389 Q 183 381 198 361 L 203 354 Z " /><path fill="rgb(255,255,255)" stroke="rgb(255,255,255)" stroke-width="0" opacity="1" d="M 337 354 L 337 358 L 336 358 L 337 354 Z " /><path fill="rgb(255,255,255)" stroke="rgb(255,255,255)" stroke-width="0" opacity="1" d="M 393 358 L 393 362 L 392 366 L 391 363 L 393 358 Z " /><path fill="rgb(255,255,255)" stroke="rgb(255,255,255)" stroke-width="0" opacity="1" d="M 338 359 L 338 363 L 337 363 L 338 359 Z " /><path fill="rgb(255,255,255)" stroke="rgb(255,255,255)" stroke-width="0" opacity="1" d="M 339 364 L 340 372 L 339 372 L 339 364 Z " /><path fill="rgb(255,255,255)" stroke="rgb(255,255,255)" stroke-width="0" opacity="1" d="M 391 367 L 391 371 L 390 371 L 391 367 Z " /><path fill="rgb(255,255,255)" stroke="rgb(255,255,255)" stroke-width="0" opacity="1" d="M 390 372 L 390 376 L 389 380 L 388 377 L 390 372 Z " /><path fill="rgb(255,255,255)" stroke="rgb(255,255,255)" stroke-width="0" opacity="1" d="M 341 373 L 341 377 L 340 377 L 341 373 Z " /><path fill="rgb(255,255,255)" stroke="rgb(255,255,255)" stroke-width="0" opacity="1" d="M 342 378 L 342 382 L 341 382 L 342 378 Z " /><path fill="rgb(255,255,255)" stroke="rgb(255,255,255)" stroke-width="0" opacity="1" d="M 388 381 L 388 385 L 387 385 L 388 381 Z " /><path fill="rgb(255,255,255)" stroke="rgb(255,255,255)" stroke-width="0" opacity="1" d="M 343 383 L 343 387 L 386 387 L 387 386 L 387 388 L 344 388 L 342 387 L 343 383 Z " /><path fill="rgb(255,255,255)" stroke="rgb(255,255,255)" stroke-width="0" opacity="1" d="M 150 390 L 153 391 L 144 393 L 138 393 L 138 392 L 144 392 L 150 390 Z " /></svg>